<?xml version="1.0" encoding="UTF-8" standalone="no"?>
<svg
   viewBox="0 0 640 640"
   version="1.1"
   id="svg1"
   width="640"
   height="640"
   xmlns="http://www.w3.org/2000/svg"
   xmlns:svg="http://www.w3.org/2000/svg">
  <defs
     id="defs1" />
  <!--!Font Awesome Free 7.1.0 by @fontawesome - https://fontawesome.com License - https://fontawesome.com/license/free Copyright 2025 Fonticons, Inc.-->
  <path
     d="m 347.19225,10.688544 c -15.37769,-14.251392 -39.13184,-14.251392 -54.3845,0 L 12.758816,270.71394 C 0.75671924,281.96504 -3.2439798,299.34173 2.7570682,314.59322 8.7581172,329.84471 23.385673,339.9707 39.888559,339.9707 h 20.00349 V 559.99219 C 59.892049,604.1215 95.773319,640 139.90603,640 h 360.06292 c 44.13271,0 80.01398,-35.8785 80.01398,-80.00781 V 339.9707 h 20.00349 c 16.50289,0 31.25546,-10.12599 37.25651,-25.37748 6.00105,-15.25149 2.00035,-32.7532 -10.00175,-43.87928 z M 299.93399,399.97656 h 40.00699 c 33.13079,0 60.01049,26.87762 60.01049,60.00586 V 579.99414 H 239.92351 V 459.98242 c 0,-33.12824 26.8797,-60.00586 60.01048,-60.00586 z"
     id="path1"
     style="stroke-width:1.25017" />
</svg>
